<svg width="1280" height="720" viewBox="0 0 1280 720" fill="none" xmlns="http://www.w3.org/2000/svg">
<g clip-path="url(#clip0_23335_326)">
<rect width="1280" height="720" fill="#070F1A"/>
<foreignObject x="-26.6713" y="-26.6713" width="123.343" height="773.343"><div xmlns="http://www.w3.org/1999/xhtml" style="backdrop-filter:blur(13.34px);clip-path:url(#bgblur_1_23335_326_clip_path);height:100%;width:100%"></div></foreignObject><path data-figma-bg-blur-radius="26.6713" d="M0 0H60C65.5229 0 70 4.47715 70 10V710C70 715.523 65.5229 720 60 720H0V0Z" fill="url(#paint0_linear_23335_326)"/>
<rect x="270" y="70" width="690" height="200" rx="10" fill="#0A121F"/>
<rect x="271" y="71" width="688" height="198" rx="9" stroke="#C4C4C4" stroke-opacity="0.15" stroke-width="2"/>
<rect x="970" y="70" width="305" height="200" fill="url(#paint1_linear_23335_326)"/>
<rect x="270" y="290" width="690" height="200" rx="10" fill="#0A121F"/>
<rect x="271" y="291" width="688" height="198" rx="9" stroke="#C4C4C4" stroke-opacity="0.15" stroke-width="2"/>
<rect x="970" y="290" width="305" height="200" fill="url(#paint2_linear_23335_326)"/>
<rect x="270" y="510" width="690" height="200" rx="10" fill="#0A121F"/>
<rect x="271" y="511" width="688" height="198" rx="9" stroke="#C4C4C4" stroke-opacity="0.15" stroke-width="2"/>
<rect x="970" y="510" width="305" height="200" fill="url(#paint3_linear_23335_326)"/>
<rect y="-185" width="1286" height="905"/>
<foreignObject x="53.3287" y="43.3287" width="232.343" height="209.593"><div xmlns="http://www.w3.org/1999/xhtml" style="backdrop-filter:blur(13.34px);clip-path:url(#bgblur_2_23335_326_clip_path);height:100%;width:100%"></div></foreignObject><rect data-figma-bg-blur-radius="26.6713" x="80" y="70" width="179" height="156.25" rx="10" fill="url(#paint4_linear_23335_326)"/>
<foreignObject x="53.3287" y="204.579" width="232.343" height="209.593"><div xmlns="http://www.w3.org/1999/xhtml" style="backdrop-filter:blur(13.34px);clip-path:url(#bgblur_3_23335_326_clip_path);height:100%;width:100%"></div></foreignObject><rect data-figma-bg-blur-radius="26.6713" x="80" y="231.25" width="179" height="156.25" rx="10" fill="url(#paint5_linear_23335_326)"/>
<foreignObject x="53.3287" y="365.829" width="232.343" height="209.593"><div xmlns="http://www.w3.org/1999/xhtml" style="backdrop-filter:blur(13.34px);clip-path:url(#bgblur_4_23335_326_clip_path);height:100%;width:100%"></div></foreignObject><rect data-figma-bg-blur-radius="26.6713" x="80" y="392.5" width="179" height="156.25" rx="10" fill="url(#paint6_linear_23335_326)"/>
<foreignObject x="53.3287" y="527.079" width="232.343" height="209.593"><div xmlns="http://www.w3.org/1999/xhtml" style="backdrop-filter:blur(13.34px);clip-path:url(#bgblur_5_23335_326_clip_path);height:100%;width:100%"></div></foreignObject><rect data-figma-bg-blur-radius="26.6713" x="80" y="553.75" width="179" height="156.25" rx="10" fill="url(#paint7_linear_23335_326)"/>
</g>
<defs>
<clipPath id="bgblur_1_23335_326_clip_path" transform="translate(26.6713 26.6713)"><path d="M0 0H60C65.5229 0 70 4.47715 70 10V710C70 715.523 65.5229 720 60 720H0V0Z"/>
</clipPath><clipPath id="bgblur_2_23335_326_clip_path" transform="translate(-53.3287 -43.3287)"><rect x="80" y="70" width="179" height="156.25" rx="10"/>
</clipPath><clipPath id="bgblur_3_23335_326_clip_path" transform="translate(-53.3287 -204.579)"><rect x="80" y="231.25" width="179" height="156.25" rx="10"/>
</clipPath><clipPath id="bgblur_4_23335_326_clip_path" transform="translate(-53.3287 -365.829)"><rect x="80" y="392.5" width="179" height="156.25" rx="10"/>
</clipPath><clipPath id="bgblur_5_23335_326_clip_path" transform="translate(-53.3287 -527.079)"><rect x="80" y="553.75" width="179" height="156.25" rx="10"/>
</clipPath><linearGradient id="paint0_linear_23335_326" x1="-3.86266e-07" y1="342" x2="70" y2="342" gradientUnits="userSpaceOnUse">
<stop stop-color="#59B7C8" stop-opacity="0.4"/>
<stop offset="1" stop-color="#59B7C8" stop-opacity="0.2"/>
</linearGradient>
<linearGradient id="paint1_linear_23335_326" x1="1275" y1="170" x2="970" y2="170" gradientUnits="userSpaceOnUse">
<stop stop-color="#131A24"/>
<stop offset="1" stop-color="#132A4D" stop-opacity="0"/>
</linearGradient>
<linearGradient id="paint2_linear_23335_326" x1="1275" y1="390" x2="970" y2="390" gradientUnits="userSpaceOnUse">
<stop stop-color="#131A24"/>
<stop offset="1" stop-color="#132A4D" stop-opacity="0"/>
</linearGradient>
<linearGradient id="paint3_linear_23335_326" x1="1275" y1="610" x2="970" y2="610" gradientUnits="userSpaceOnUse">
<stop stop-color="#131A24"/>
<stop offset="1" stop-color="#132A4D" stop-opacity="0"/>
</linearGradient>
<linearGradient id="paint4_linear_23335_326" x1="80" y1="144.219" x2="259" y2="144.219" gradientUnits="userSpaceOnUse">
<stop stop-color="#59B7C8" stop-opacity="0.4"/>
<stop offset="1" stop-color="#59B7C8" stop-opacity="0.2"/>
</linearGradient>
<linearGradient id="paint5_linear_23335_326" x1="80" y1="305.469" x2="259" y2="305.469" gradientUnits="userSpaceOnUse">
<stop stop-color="#59B7C8" stop-opacity="0.4"/>
<stop offset="1" stop-color="#59B7C8" stop-opacity="0.2"/>
</linearGradient>
<linearGradient id="paint6_linear_23335_326" x1="80" y1="466.719" x2="259" y2="466.719" gradientUnits="userSpaceOnUse">
<stop stop-color="#59B7C8" stop-opacity="0.4"/>
<stop offset="1" stop-color="#59B7C8" stop-opacity="0.2"/>
</linearGradient>
<linearGradient id="paint7_linear_23335_326" x1="80" y1="627.969" x2="259" y2="627.969" gradientUnits="userSpaceOnUse">
<stop stop-color="#59B7C8" stop-opacity="0.4"/>
<stop offset="1" stop-color="#59B7C8" stop-opacity="0.2"/>
</linearGradient>
<clipPath id="clip0_23335_326">
<rect width="1280" height="720" fill="white"/>
</clipPath>
</defs>
</svg>
